HIERARCHY
ROOT Hips
{
    OFFSET   0.000000   0.000000   0.000000
    CHANNELS 6 Xposition Yposition Zposition Zrotation Xrotation Yrotation
    JOINT Chest
    {
        OFFSET   0.000000   8.007230   0.000000
        CHANNELS 3 Zrotation Xrotation Yrotation
        JOINT Chest2
        {
            OFFSET   0.000000  22.077100   0.000000
            CHANNELS 3 Zrotation Xrotation Yrotation
            JOINT Neck
            {
                OFFSET   0.000000  23.255100   0.000000
                CHANNELS 3 Zrotation Xrotation Yrotation
                JOINT Head
                {
                    OFFSET   0.000000  14.370100   1.956600
                    CHANNELS 3 Zrotation Xrotation Yrotation
                    End Site
                    {
                        OFFSET   0.000000  19.566000   0.000000
                    }
                }
            }
            JOINT LeftCollar
            {
                OFFSET   3.911900  19.017000  -0.467063
                CHANNELS 3 Zrotation Xrotation Yrotation
                JOINT LeftShoulder
                {
                    OFFSET  10.383700   0.000000   0.000000
                    CHANNELS 3 Zrotation Xrotation Yrotation
                    JOINT LeftElbow
                    {
                        OFFSET  26.662100   0.001193   0.000980
                        CHANNELS 3 Zrotation Xrotation Yrotation
                        JOINT LeftWrist
                        {
                            OFFSET  28.869000  -0.000059  -0.000082
                            CHANNELS 3 Zrotation Xrotation Yrotation
                            JOINT LeftFinger0
                            {
                                OFFSET   2.044650  -2.323450   3.252850
                                CHANNELS 3 Zrotation Xrotation Yrotation
                                JOINT LeftFinger01
                                {
                                    OFFSET   3.088130   0.000000   0.000000
                                    CHANNELS 3 Zrotation Xrotation Yrotation
                                    JOINT LeftFinger02
                                    {
                                        OFFSET   2.639460   0.000000   0.000000
                                        CHANNELS 3 Zrotation Xrotation Yrotation
                                        End Site
                                        {
                                            OFFSET   2.582190   0.000000   0.000000
                                        }
                                    }
                                }
                            }
                            JOINT LeftFinger1
                            {
                                OFFSET   8.364480   0.000000   3.252850
                                CHANNELS 3 Zrotation Xrotation Yrotation
                                JOINT LeftFinger11
                                {
                                    OFFSET   4.646930   0.000000   0.000000
                                    CHANNELS 3 Zrotation Xrotation Yrotation
                                    JOINT LeftFinger12
                                    {
                                        OFFSET   2.323470   0.000000   0.000000
                                        CHANNELS 3 Zrotation Xrotation Yrotation
                                        End Site
                                        {
                                            OFFSET   2.273050   0.000000   0.000000
                                        }
                                    }
                                }
                            }
                            JOINT LeftFinger2
                            {
                                OFFSET   8.364490   0.000016   1.078090
                                CHANNELS 3 Zrotation Xrotation Yrotation
                                JOINT LeftFinger21
                                {
                                    OFFSET   5.111610   0.000000   0.000000
                                    CHANNELS 3 Zrotation Xrotation Yrotation
                                    JOINT LeftFinger22
                                    {
                                        OFFSET   2.788150   0.000016   0.000000
                                        CHANNELS 3 Zrotation Xrotation Yrotation
                                        End Site
                                        {
                                            OFFSET   2.727660   0.000000   0.000000
                                        }
                                    }
                                }
                            }
                            JOINT LeftFinger3
                            {
                                OFFSET   7.899780   0.000015  -1.078090
                                CHANNELS 3 Zrotation Xrotation Yrotation
                                JOINT LeftFinger31
                                {
                                    OFFSET   4.646930   0.000000   0.000000
                                    CHANNELS 3 Zrotation Xrotation Yrotation
                                    JOINT LeftFinger32
                                    {
                                        OFFSET   2.323470   0.000000   0.000000
                                        CHANNELS 3 Zrotation Xrotation Yrotation
                                        End Site
                                        {
                                            OFFSET   2.273050   0.000000   0.000000
                                        }
                                    }
                                }
                            }
                            JOINT LeftFinger4
                            {
                                OFFSET   7.435090   0.000000  -3.252850
                                CHANNELS 3 Zrotation Xrotation Yrotation
                                JOINT LeftFinger41
                                {
                                    OFFSET   3.717550   0.000000   0.000000
                                    CHANNELS 3 Zrotation Xrotation Yrotation
                                    JOINT LeftFinger42
                                    {
                                        OFFSET   1.858770   0.000000   0.000000
                                        CHANNELS 3 Zrotation Xrotation Yrotation
                                        End Site
                                        {
                                            OFFSET   1.818440   0.000000   0.000000
                                        }
                                    }
                                }
                            }
                        }
                    }
                }
            }
            JOINT RightCollar
            {
                OFFSET  -3.911910  19.017000  -0.467062
                CHANNELS 3 Zrotation Xrotation Yrotation
                JOINT RightShoulder
                {
                    OFFSET -10.383700   0.000014   0.000000
                    CHANNELS 3 Zrotation Xrotation Yrotation
                    JOINT RightElbow
                    {
                        OFFSET -26.662100   0.001225   0.001091
                        CHANNELS 3 Zrotation Xrotation Yrotation
                        JOINT RightWrist
                        {
                            OFFSET -28.869000  -0.000020  -0.000085
                            CHANNELS 3 Zrotation Xrotation Yrotation
                            JOINT RightFinger0
                            {
                                OFFSET  -2.044650  -2.323490   3.252850
                                CHANNELS 3 Zrotation Xrotation Yrotation
                                JOINT RightFinger01
                                {
                                    OFFSET  -3.088130   0.000000   0.000000
                                    CHANNELS 3 Zrotation Xrotation Yrotation
                                    JOINT RightFinger02
                                    {
                                        OFFSET  -2.639460   0.000000   0.000000
                                        CHANNELS 3 Zrotation Xrotation Yrotation
                                        End Site
                                        {
                                            OFFSET  -2.582190   0.000000   0.000000
                                        }
                                    }
                                }
                            }
                            JOINT RightFinger1
                            {
                                OFFSET  -8.364480   0.000000   3.252850
                                CHANNELS 3 Zrotation Xrotation Yrotation
                                JOINT RightFinger11
                                {
                                    OFFSET  -4.646930   0.000000   0.000000
                                    CHANNELS 3 Zrotation Xrotation Yrotation
                                    JOINT RightFinger12
                                    {
                                        OFFSET  -2.323470   0.000000   0.000000
                                        CHANNELS 3 Zrotation Xrotation Yrotation
                                        End Site
                                        {
                                            OFFSET  -2.273050   0.000000   0.000000
                                        }
                                    }
                                }
                            }
                            JOINT RightFinger2
                            {
                                OFFSET  -8.364480   0.000000   1.078090
                                CHANNELS 3 Zrotation Xrotation Yrotation
                                JOINT RightFinger21
                                {
                                    OFFSET  -5.111620   0.000000   0.000000
                                    CHANNELS 3 Zrotation Xrotation Yrotation
                                    JOINT RightFinger22
                                    {
                                        OFFSET  -2.788160   0.000000   0.000000
                                        CHANNELS 3 Zrotation Xrotation Yrotation
                                        End Site
                                        {
                                            OFFSET  -2.727660   0.000000   0.000000
                                        }
                                    }
                                }
                            }
                            JOINT RightFinger3
                            {
                                OFFSET  -7.899780   0.000000  -1.078090
                                CHANNELS 3 Zrotation Xrotation Yrotation
                                JOINT RightFinger31
                                {
                                    OFFSET  -4.646930   0.000000   0.000000
                                    CHANNELS 3 Zrotation Xrotation Yrotation
                                    JOINT RightFinger32
                                    {
                                        OFFSET  -2.323470   0.000000   0.000000
                                        CHANNELS 3 Zrotation Xrotation Yrotation
                                        End Site
                                        {
                                            OFFSET  -2.273050   0.000000   0.000000
                                        }
                                    }
                                }
                            }
                            JOINT RightFinger4
                            {
                                OFFSET  -7.435090   0.000000  -3.252850
                                CHANNELS 3 Zrotation Xrotation Yrotation
                                JOINT RightFinger41
                                {
                                    OFFSET  -3.717550   0.000000   0.000000
                                    CHANNELS 3 Zrotation Xrotation Yrotation
                                    JOINT RightFinger42
                                    {
                                        OFFSET  -1.858760   0.000000   0.000000
                                        CHANNELS 3 Zrotation Xrotation Yrotation
                                        End Site
                                        {
                                            OFFSET  -1.818440   0.000000   0.000000
                                        }
                                    }
                                }
                            }
                        }
                    }
                }
            }
        }
    }
    JOINT LeftHip
    {
        OFFSET   9.783030   0.000000   0.000000
        CHANNELS 3 Zrotation Xrotation Yrotation
        JOINT LeftKnee
        {
            OFFSET   0.000063 -41.789100   0.000608
            CHANNELS 3 Zrotation Xrotation Yrotation
            JOINT LeftAnkle
            {
                OFFSET   0.000048 -41.133200  -0.000184
                CHANNELS 3 Zrotation Xrotation Yrotation
                JOINT LeftToe
                {
                    OFFSET   0.000000  -6.358960  14.674500
                    CHANNELS 3 Zrotation Xrotation Yrotation
                    End Site
                    {
                        OFFSET   0.000000   0.000000   3.913200
                    }
                }
            }
        }
    }
    JOINT RightHip
    {
        OFFSET  -9.783030   0.000000   0.000000
        CHANNELS 3 Zrotation Xrotation Yrotation
        JOINT RightKnee
        {
            OFFSET   0.000071 -41.789100   0.001239
            CHANNELS 3 Zrotation Xrotation Yrotation
            JOINT RightAnkle
            {
                OFFSET   0.000037 -41.133200  -0.000166
                CHANNELS 3 Zrotation Xrotation Yrotation
                JOINT RightToe
                {
                    OFFSET   0.000000  -6.358960  14.674500
                    CHANNELS 3 Zrotation Xrotation Yrotation
                    End Site
                    {
                        OFFSET   0.000000   0.000000   3.913200
                    }
                }
            }
        }
    }
}
MOTION
Frames: 4
Frame Time:   0.016667
  7.359420  89.095100   1.090740  -8.207050 -18.530000 -12.203200   0.232395   8.407250   2.963170   0.019846  16.815300   5.989990  -0.388178   0.163417   0.006756  -0.637773   0.331335   2.520610  -6.441430  -4.041100  -0.424383 -61.246600  -3.474550 -44.227200  12.748000 -36.989800 -107.803000 -17.773500 -42.497400 -21.531900  45.187100  42.369000 -72.647700 -32.811400  -0.000342   0.002526 -11.405700  -0.002994   0.003632 -35.150800   2.796600  -3.941640 -28.822300  -0.001963  -0.000977 -20.175600  -0.001049  -0.001121 -28.770900  -3.748800   6.789950 -43.490000  -0.000312  -0.000187 -28.964400   0.001473  -0.000214 -28.560200  -3.702610   6.759430 -41.457700  -0.003064  -0.002311 -27.610800  -0.001067  -0.002316 -32.325000  -4.152050   6.503390 -48.848600  -0.014097  -0.011937 -32.533100  -0.000446  -0.011746   9.843090  -3.407820   9.041560  47.702600  -7.912780  34.160300 -31.686300 -51.365000  85.544700  63.164000 -52.708100  69.472300 -46.457700  35.972700  68.062400  23.249600   0.017675  -0.007634   6.624800   0.008784   0.010098  33.016800   6.227940   9.533570  27.439500  -0.013982   0.015022  19.207600  -0.005809   0.013146  28.619800  -0.252131  -0.413612  37.386400  -0.030733   0.047786  24.899400  -0.005552   0.037614  28.452300  -3.215770  -5.871420  41.584100  -0.036185   0.075269  27.695000   0.000880   0.055965  40.799300  -4.441730  -5.015450  61.504300   0.008882   0.066462  40.961900   0.033524   0.030331  -0.015182  22.361000   4.640550   0.056283   0.001742   7.498030   2.277100  -4.831350   8.860990  -0.000000   0.000000  -0.000000   2.191590  12.361800  -4.238160  -5.135300  14.777600  -6.443730   3.155190  -7.362670   6.624360   0.000000   0.000000   0.000000
  7.292900  89.106100   1.061790  -8.240700 -18.401900 -12.317100   0.268547   8.405800   2.972480   0.091853  16.814900   6.003550  -0.360604   0.051575   0.006472  -0.593375   0.104668   2.408550  -6.539040  -3.961900  -0.444307 -61.541400  -3.602130 -42.122000  13.927600 -36.326300 -106.365000 -13.348000 -41.271300 -18.658200  45.755400  42.771800 -72.555300 -32.813600   0.004303   0.004416 -11.406800  -0.002984   0.003591 -35.107000   2.401670  -3.369530 -28.764700   0.005244   0.003818 -20.135300   0.004058   0.002956 -28.780600  -3.741800   6.786970 -43.503700   0.008043   0.005672 -28.973500   0.001964   0.005792 -28.570500  -3.717950   6.806590 -41.465300   0.013924   0.009054 -27.615900   0.003806   0.009852 -31.940900  -4.158820   6.591940 -48.239800  -0.004864  -0.004000 -32.127700  -0.000479  -0.003970  10.081800  -3.496010   9.084410  47.506500  -6.910470  32.789200 -32.412000 -50.375400  83.834500  61.140400 -53.353600  66.237300 -46.710700  36.350200  67.596800  23.733000   0.031096  -0.013644   6.866540   0.015900   0.010491  32.232700   6.221100   9.898370  26.806500  -0.023130   0.019788  18.764500  -0.011252   0.017906  28.446400   0.222313   0.463985  35.242700  -0.054821   0.061362  23.471700  -0.019187   0.050326  28.644000  -2.546810  -4.597240  37.946600  -0.062656   0.082317  25.272400  -0.016493   0.066119  38.960200  -3.408060  -4.016220  58.630900  -0.015844   0.095462  39.048200   0.029800   0.055714   0.042255  22.195200   4.664070   0.076675   0.038693   7.522470   2.242420  -4.833550   8.907820  -0.000000   0.000000   0.000000   2.266810  12.311800  -4.255710  -5.141790  14.582200  -6.405120   3.111830  -7.258660   6.684570   0.000000   0.000000  -0.000000
  7.220050  89.120200   1.035110  -8.278010 -18.278400 -12.436100   0.302431   8.405160   2.981790   0.159449  16.814700   6.017120  -0.324312  -0.066449   0.006186  -0.532395  -0.134550   2.317140  -6.653580  -3.919220  -0.473213 -61.696600  -3.739830 -39.747400  14.899600 -35.281900 -105.079000  -8.385690 -39.913000 -15.494100  46.147800  43.086200 -72.412600 -32.829000   0.011149   0.007204 -11.414500  -0.002959   0.003544 -35.122700   1.981920  -2.752300 -28.751700   0.013976   0.008800 -20.126200   0.008794   0.008236 -28.843700  -3.736940   6.766480 -43.599400   0.015813   0.011421 -29.037200   0.002677   0.011799 -28.580800  -3.826010   7.038430 -41.518300   0.027972   0.023229 -27.651200   0.009076   0.022450 -31.752300  -4.209420   6.816490 -47.955200   0.000521   0.000927 -31.938200  -0.000512   0.000709  10.333900  -3.601010   9.149270  47.237900  -5.772240  31.257100 -33.250200 -49.254200  81.840700  58.214200 -54.256300  62.584900 -46.786400  36.801800  67.183000  24.279500   0.050832  -0.022832   7.139780   0.026476   0.010917  31.415900   6.216030  10.125600  26.141600  -0.036850   0.024998  18.299100  -0.019289   0.024455  28.193900   0.667207   1.303540  33.046400  -0.090687   0.075308  22.008900  -0.039700   0.067588  28.805900  -1.895310  -3.286680  34.079100  -0.099807   0.089082  22.696700  -0.042219   0.078104  36.978100  -2.408140  -2.954420  55.577800  -0.053321   0.141402  37.014800   0.023108   0.097792   0.101231  22.093300   4.678550   0.090959   0.064321   7.562610   2.205930  -4.835790   8.950490  -0.000000   0.000000   0.000000   2.350480  12.271500  -4.282580  -5.153230  14.380900  -6.363100   3.067710  -7.153490   6.753120  -0.000000   0.000000   0.000000
  7.144550  89.137200   1.014090  -8.322320 -18.173900 -12.555800   0.332202   8.418310   2.972950   0.220228  16.842200   5.996070  -0.281596  -0.193053   0.005890  -0.462402  -0.391262   2.294320  -6.785170  -3.948590  -0.489118 -61.684000  -3.798750 -37.089800  15.673000 -33.948000 -103.883000  -3.136510 -38.221900 -12.286200  46.234700  43.311900 -72.304200 -32.973300   0.015925   0.010244 -11.487000  -0.002926   0.003502 -35.340300   1.606880  -2.193010 -28.906600   0.015756   0.009018 -20.234600   0.008731   0.009641 -29.069500  -3.734820   6.703160 -43.921500   0.015663   0.011408 -29.251700   0.003939   0.011742 -28.570000  -4.131950   7.607720 -41.936300   0.031050   0.026668 -27.929500   0.009727   0.025472 -31.709500  -4.516110   7.375610 -47.957700   0.000714   0.001237 -31.939800  -0.000539   0.000935  10.627300  -3.714260   9.277360  46.727800  -4.244890  29.431600 -34.386000 -47.995500  79.145200  54.392800 -55.358700  58.834200 -46.964900  37.545500  67.020500  25.012000   0.062673  -0.029537   7.506020   0.033200   0.011584  30.560800   6.027550  10.068900  25.418000  -0.045987   0.025518  17.792600  -0.025309   0.026851  27.932700   0.980596   1.952170  30.823200  -0.113710   0.075741  20.528200  -0.054981   0.073072  28.436500  -1.272880  -2.001510  30.704100  -0.136737   0.088766  20.448900  -0.068199   0.084040  34.933700  -1.536050  -1.843000  52.446700  -0.103612   0.180159  34.929400   0.006851   0.139189   0.164514  22.193300   4.671240   0.096292  -0.124790   7.631970   2.168320  -4.820240   8.985670   0.000000   0.000000   0.000000   2.443630  12.257200  -4.324210  -5.168400  14.169300  -6.325440   3.024510  -7.047860   6.836780   0.000000   0.000000  -0.000000
